<mxfile host="app.diagrams.net" agent="Mozilla/5.0 (X11; Linux x86_64; rv:138.0) Gecko/20100101 Firefox/138.0" version="27.0.9">
  <diagram name="Page-1" id="3zVVUf_f2HV1rA6rrz_c">
    <mxGraphModel grid="1" page="1" gridSize="10" guides="1" tooltips="1" connect="1" arrows="1" fold="1" pageScale="1" pageWidth="850" pageHeight="1100" math="0" shadow="0">
      <root>
        <mxCell id="0" />
        <mxCell id="1" parent="0" />
        <mxCell id="fGgHPvQIKBjHU2UXJP68-2" value="&lt;div&gt;Notebook&lt;/div&gt;&lt;div&gt;192.168.0.44&lt;/div&gt;" style="fontColor=#000000;verticalAlign=top;verticalLabelPosition=bottom;labelPosition=center;align=center;html=1;outlineConnect=0;fillColor=#CCCCCC;strokeColor=#000000;gradientColor=none;gradientDirection=north;strokeWidth=2;shape=mxgraph.networks.laptop;" vertex="1" parent="1">
          <mxGeometry x="350" y="190" width="100" height="55" as="geometry" />
        </mxCell>
        <mxCell id="fGgHPvQIKBjHU2UXJP68-15" style="edgeStyle=orthogonalEdgeStyle;rounded=0;orthogonalLoop=1;jettySize=auto;html=1;entryX=0.15;entryY=0.5;entryDx=0;entryDy=0;entryPerimeter=0;dashed=1;" edge="1" parent="1" source="fGgHPvQIKBjHU2UXJP68-3" target="fGgHPvQIKBjHU2UXJP68-2">
          <mxGeometry relative="1" as="geometry" />
        </mxCell>
        <mxCell id="fGgHPvQIKBjHU2UXJP68-3" value="&lt;div&gt;&lt;span&gt;CentOS7-VM&lt;/span&gt;&lt;/div&gt;&lt;div&gt;192.168.0.83 (Bridged)&lt;/div&gt;&lt;div&gt;10.0.2.15 (NAT)&lt;/div&gt;" style="fontColor=#000000;verticalAlign=top;verticalLabelPosition=bottom;labelPosition=center;align=center;html=1;outlineConnect=0;fillColor=#CCCCCC;strokeColor=#000000;gradientColor=none;gradientDirection=north;strokeWidth=2;shape=mxgraph.networks.virtual_pc;" vertex="1" parent="1">
          <mxGeometry x="160" y="177.19" width="108.24" height="80" as="geometry" />
        </mxCell>
        <mxCell id="fGgHPvQIKBjHU2UXJP68-11" style="edgeStyle=orthogonalEdgeStyle;rounded=0;orthogonalLoop=1;jettySize=auto;html=1;startArrow=none;startFill=0;endArrow=none;dashed=1;fillColor=#f5f5f5;strokeColor=#666666;opacity=50;fontColor=#000000;" edge="1" parent="1" source="fGgHPvQIKBjHU2UXJP68-4" target="fGgHPvQIKBjHU2UXJP68-6">
          <mxGeometry relative="1" as="geometry">
            <Array as="points">
              <mxPoint x="560" y="360" />
            </Array>
          </mxGeometry>
        </mxCell>
        <mxCell id="fGgHPvQIKBjHU2UXJP68-13" value="Wi-Fi" style="edgeLabel;html=1;align=center;verticalAlign=middle;resizable=0;points=[];fontColor=#000000;" connectable="0" vertex="1" parent="fGgHPvQIKBjHU2UXJP68-11">
          <mxGeometry x="0.0506" y="2" relative="1" as="geometry">
            <mxPoint x="2" y="-36" as="offset" />
          </mxGeometry>
        </mxCell>
        <mxCell id="fGgHPvQIKBjHU2UXJP68-4" value="&lt;div&gt;Smartphone&lt;/div&gt;&lt;div&gt;192.168.0.4&lt;/div&gt;" style="fontColor=#000000;verticalAlign=top;verticalLabelPosition=bottom;labelPosition=center;align=center;html=1;outlineConnect=0;fillColor=#CCCCCC;strokeColor=#000000;gradientColor=none;gradientDirection=north;strokeWidth=2;shape=mxgraph.networks.mobile;" vertex="1" parent="1">
          <mxGeometry x="546" y="190" width="27.19" height="54.38" as="geometry" />
        </mxCell>
        <mxCell id="fGgHPvQIKBjHU2UXJP68-8" style="edgeStyle=orthogonalEdgeStyle;rounded=0;orthogonalLoop=1;jettySize=auto;html=1;startArrow=none;startFill=0;endArrow=none;dashed=1;fontColor=#000000;strokeColor=#000000;strokeWidth=2;" edge="1" parent="1" target="fGgHPvQIKBjHU2UXJP68-7">
          <mxGeometry relative="1" as="geometry">
            <mxPoint x="400" y="410" as="sourcePoint" />
          </mxGeometry>
        </mxCell>
        <mxCell id="fGgHPvQIKBjHU2UXJP68-6" value="" style="fontColor=#000000;verticalAlign=top;verticalLabelPosition=bottom;labelPosition=center;align=center;html=1;outlineConnect=0;fillColor=#CCCCCC;strokeColor=#000000;gradientColor=none;gradientDirection=north;strokeWidth=2;shape=mxgraph.networks.router;" vertex="1" parent="1">
          <mxGeometry x="350" y="350" width="100" height="30" as="geometry" />
        </mxCell>
        <mxCell id="fGgHPvQIKBjHU2UXJP68-7" value="&lt;div&gt;&lt;b&gt;&lt;br&gt;&lt;/b&gt;&lt;/div&gt;&lt;div&gt;&lt;b&gt;Internet&lt;/b&gt;&lt;/div&gt;" style="html=1;outlineConnect=0;fillColor=#CCCCCC;strokeColor=#000000;gradientColor=none;gradientDirection=north;strokeWidth=2;shape=mxgraph.networks.cloud;fontColor=#000000;" vertex="1" parent="1">
          <mxGeometry x="355" y="450" width="90" height="50" as="geometry" />
        </mxCell>
        <mxCell id="fGgHPvQIKBjHU2UXJP68-9" style="edgeStyle=orthogonalEdgeStyle;rounded=0;orthogonalLoop=1;jettySize=auto;html=1;dashed=1;endArrow=none;startFill=0;fillColor=#f5f5f5;strokeColor=#666666;opacity=80;fontColor=#000000;" edge="1" parent="1">
          <mxGeometry relative="1" as="geometry">
            <mxPoint x="220" y="257.19" as="sourcePoint" />
            <mxPoint x="330" y="359.69" as="targetPoint" />
            <Array as="points">
              <mxPoint x="220" y="359.69" />
            </Array>
          </mxGeometry>
        </mxCell>
        <mxCell id="fGgHPvQIKBjHU2UXJP68-14" value="Wi-Fi" style="edgeLabel;html=1;align=center;verticalAlign=middle;resizable=0;points=[];fontColor=#000000;" connectable="0" vertex="1" parent="fGgHPvQIKBjHU2UXJP68-9">
          <mxGeometry x="-0.3748" relative="1" as="geometry">
            <mxPoint as="offset" />
          </mxGeometry>
        </mxCell>
        <mxCell id="fGgHPvQIKBjHU2UXJP68-10" style="edgeStyle=orthogonalEdgeStyle;rounded=0;orthogonalLoop=1;jettySize=auto;html=1;entryX=0.5;entryY=0;entryDx=0;entryDy=0;entryPerimeter=0;startArrow=none;startFill=0;endArrow=none;dashed=1;fillColor=#f5f5f5;strokeColor=#666666;opacity=80;fontColor=#000000;" edge="1" parent="1" source="fGgHPvQIKBjHU2UXJP68-2" target="fGgHPvQIKBjHU2UXJP68-6">
          <mxGeometry relative="1" as="geometry">
            <Array as="points">
              <mxPoint x="400" y="230" />
              <mxPoint x="400" y="230" />
            </Array>
          </mxGeometry>
        </mxCell>
        <mxCell id="fGgHPvQIKBjHU2UXJP68-12" value="&lt;div&gt;Wi-Fi&lt;/div&gt;" style="edgeLabel;html=1;align=center;verticalAlign=middle;resizable=0;points=[];fontColor=#000000;" connectable="0" vertex="1" parent="fGgHPvQIKBjHU2UXJP68-10">
          <mxGeometry x="0.1737" y="-3" relative="1" as="geometry">
            <mxPoint x="3" y="14" as="offset" />
          </mxGeometry>
        </mxCell>
        <mxCell id="9OlITM3bLRna7CYPGqwV-3" value="" style="edgeStyle=orthogonalEdgeStyle;rounded=0;orthogonalLoop=1;jettySize=auto;html=1;startArrow=none;startFill=0;endArrow=none;dashed=1;fontColor=#000000;strokeColor=#000000;strokeWidth=2;" edge="1" parent="1" source="fGgHPvQIKBjHU2UXJP68-6">
          <mxGeometry relative="1" as="geometry">
            <mxPoint x="400" y="380" as="sourcePoint" />
            <mxPoint x="399.9999999999998" y="380" as="targetPoint" />
          </mxGeometry>
        </mxCell>
        <mxCell id="9OlITM3bLRna7CYPGqwV-4" value="192.168.0.1" style="text;html=1;align=center;verticalAlign=middle;resizable=0;points=[];autosize=1;strokeColor=none;fillColor=none;" vertex="1" parent="1">
          <mxGeometry x="355" y="330" width="90" height="30" as="geometry" />
        </mxCell>
        <mxCell id="h2hckbnsCygy0q_4kNPu-1" value="&lt;div&gt;Notebook&lt;/div&gt;&lt;div&gt;192.168.0.44&lt;/div&gt;" style="fontColor=#000000;verticalAlign=top;verticalLabelPosition=bottom;labelPosition=center;align=center;html=1;outlineConnect=0;fillColor=#CCCCCC;strokeColor=#000000;gradientColor=none;gradientDirection=north;strokeWidth=2;shape=mxgraph.networks.laptop;" vertex="1" parent="1">
          <mxGeometry x="350" y="682.81" width="100" height="55" as="geometry" />
        </mxCell>
        <mxCell id="h2hckbnsCygy0q_4kNPu-2" style="edgeStyle=orthogonalEdgeStyle;rounded=0;orthogonalLoop=1;jettySize=auto;html=1;entryX=0.15;entryY=0.5;entryDx=0;entryDy=0;entryPerimeter=0;dashed=1;" edge="1" parent="1" source="h2hckbnsCygy0q_4kNPu-3" target="h2hckbnsCygy0q_4kNPu-1">
          <mxGeometry relative="1" as="geometry" />
        </mxCell>
        <mxCell id="h2hckbnsCygy0q_4kNPu-3" value="&lt;div&gt;&lt;span&gt;CentOS7-VM&lt;/span&gt;&lt;/div&gt;&lt;div&gt;192.168.0.83 (Bridged)&lt;/div&gt;&lt;div&gt;10.0.2.15 (NAT)&lt;/div&gt;" style="fontColor=#000000;verticalAlign=top;verticalLabelPosition=bottom;labelPosition=center;align=center;html=1;outlineConnect=0;fillColor=#CCCCCC;strokeColor=#000000;gradientColor=none;gradientDirection=north;strokeWidth=2;shape=mxgraph.networks.virtual_pc;" vertex="1" parent="1">
          <mxGeometry x="160" y="670" width="108.24" height="80" as="geometry" />
        </mxCell>
        <mxCell id="h2hckbnsCygy0q_4kNPu-4" style="edgeStyle=orthogonalEdgeStyle;rounded=0;orthogonalLoop=1;jettySize=auto;html=1;startArrow=none;startFill=0;endArrow=none;dashed=1;fillColor=#f5f5f5;strokeColor=#666666;opacity=50;fontColor=#000000;" edge="1" parent="1" source="h2hckbnsCygy0q_4kNPu-6" target="h2hckbnsCygy0q_4kNPu-8">
          <mxGeometry relative="1" as="geometry">
            <Array as="points">
              <mxPoint x="560" y="852.81" />
            </Array>
          </mxGeometry>
        </mxCell>
        <mxCell id="h2hckbnsCygy0q_4kNPu-5" value="Wi-Fi" style="edgeLabel;html=1;align=center;verticalAlign=middle;resizable=0;points=[];fontColor=#000000;" connectable="0" vertex="1" parent="h2hckbnsCygy0q_4kNPu-4">
          <mxGeometry x="0.0506" y="2" relative="1" as="geometry">
            <mxPoint x="2" y="-36" as="offset" />
          </mxGeometry>
        </mxCell>
        <mxCell id="h2hckbnsCygy0q_4kNPu-6" value="&lt;div&gt;Smartphone&lt;/div&gt;&lt;div&gt;192.168.0.4&lt;/div&gt;" style="fontColor=#000000;verticalAlign=top;verticalLabelPosition=bottom;labelPosition=center;align=center;html=1;outlineConnect=0;fillColor=#CCCCCC;strokeColor=#000000;gradientColor=none;gradientDirection=north;strokeWidth=2;shape=mxgraph.networks.mobile;" vertex="1" parent="1">
          <mxGeometry x="546" y="682.81" width="27.19" height="54.38" as="geometry" />
        </mxCell>
        <mxCell id="h2hckbnsCygy0q_4kNPu-7" style="edgeStyle=orthogonalEdgeStyle;rounded=0;orthogonalLoop=1;jettySize=auto;html=1;startArrow=none;startFill=0;endArrow=none;dashed=1;fontColor=#000000;strokeColor=#000000;strokeWidth=2;" edge="1" parent="1" target="h2hckbnsCygy0q_4kNPu-9">
          <mxGeometry relative="1" as="geometry">
            <mxPoint x="400" y="902.81" as="sourcePoint" />
          </mxGeometry>
        </mxCell>
        <mxCell id="h2hckbnsCygy0q_4kNPu-8" value="" style="fontColor=#000000;verticalAlign=top;verticalLabelPosition=bottom;labelPosition=center;align=center;html=1;outlineConnect=0;fillColor=#CCCCCC;strokeColor=#000000;gradientColor=none;gradientDirection=north;strokeWidth=2;shape=mxgraph.networks.router;" vertex="1" parent="1">
          <mxGeometry x="350" y="842.81" width="100" height="30" as="geometry" />
        </mxCell>
        <mxCell id="h2hckbnsCygy0q_4kNPu-9" value="&lt;div&gt;&lt;b&gt;&lt;br&gt;&lt;/b&gt;&lt;/div&gt;&lt;div&gt;&lt;b&gt;Internet&lt;/b&gt;&lt;/div&gt;" style="html=1;outlineConnect=0;fillColor=#CCCCCC;strokeColor=#000000;gradientColor=none;gradientDirection=north;strokeWidth=2;shape=mxgraph.networks.cloud;fontColor=#000000;" vertex="1" parent="1">
          <mxGeometry x="355" y="942.81" width="90" height="50" as="geometry" />
        </mxCell>
        <mxCell id="h2hckbnsCygy0q_4kNPu-10" style="edgeStyle=orthogonalEdgeStyle;rounded=0;orthogonalLoop=1;jettySize=auto;html=1;dashed=1;endArrow=none;startFill=0;fillColor=#f5f5f5;strokeColor=#666666;opacity=80;fontColor=#000000;" edge="1" parent="1">
          <mxGeometry relative="1" as="geometry">
            <mxPoint x="220" y="750" as="sourcePoint" />
            <mxPoint x="330" y="852.5" as="targetPoint" />
            <Array as="points">
              <mxPoint x="220" y="852.5" />
            </Array>
          </mxGeometry>
        </mxCell>
        <mxCell id="h2hckbnsCygy0q_4kNPu-11" value="Wi-Fi" style="edgeLabel;html=1;align=center;verticalAlign=middle;resizable=0;points=[];fontColor=#000000;" connectable="0" vertex="1" parent="h2hckbnsCygy0q_4kNPu-10">
          <mxGeometry x="-0.3748" relative="1" as="geometry">
            <mxPoint as="offset" />
          </mxGeometry>
        </mxCell>
        <mxCell id="h2hckbnsCygy0q_4kNPu-12" style="edgeStyle=orthogonalEdgeStyle;rounded=0;orthogonalLoop=1;jettySize=auto;html=1;entryX=0.5;entryY=0;entryDx=0;entryDy=0;entryPerimeter=0;startArrow=none;startFill=0;endArrow=none;dashed=1;fillColor=#f5f5f5;strokeColor=#666666;opacity=80;fontColor=#000000;" edge="1" parent="1" source="h2hckbnsCygy0q_4kNPu-1" target="h2hckbnsCygy0q_4kNPu-8">
          <mxGeometry relative="1" as="geometry">
            <Array as="points">
              <mxPoint x="400" y="722.81" />
              <mxPoint x="400" y="722.81" />
            </Array>
          </mxGeometry>
        </mxCell>
        <mxCell id="h2hckbnsCygy0q_4kNPu-13" value="&lt;div&gt;Wi-Fi&lt;/div&gt;" style="edgeLabel;html=1;align=center;verticalAlign=middle;resizable=0;points=[];fontColor=#000000;" connectable="0" vertex="1" parent="h2hckbnsCygy0q_4kNPu-12">
          <mxGeometry x="0.1737" y="-3" relative="1" as="geometry">
            <mxPoint x="3" y="14" as="offset" />
          </mxGeometry>
        </mxCell>
        <mxCell id="h2hckbnsCygy0q_4kNPu-14" value="" style="edgeStyle=orthogonalEdgeStyle;rounded=0;orthogonalLoop=1;jettySize=auto;html=1;startArrow=none;startFill=0;endArrow=none;dashed=1;fontColor=#000000;strokeColor=#000000;strokeWidth=2;" edge="1" parent="1" source="h2hckbnsCygy0q_4kNPu-8">
          <mxGeometry relative="1" as="geometry">
            <mxPoint x="400" y="872.81" as="sourcePoint" />
            <mxPoint x="399.9999999999998" y="872.81" as="targetPoint" />
          </mxGeometry>
        </mxCell>
        <mxCell id="h2hckbnsCygy0q_4kNPu-15" value="192.168.0.1" style="text;html=1;align=center;verticalAlign=middle;resizable=0;points=[];autosize=1;strokeColor=none;fillColor=none;" vertex="1" parent="1">
          <mxGeometry x="355" y="822.81" width="90" height="30" as="geometry" />
        </mxCell>
        <mxCell id="h2hckbnsCygy0q_4kNPu-17" value="" style="rounded=0;whiteSpace=wrap;html=1;fillStyle=auto;fillColor=none;" vertex="1" parent="1">
          <mxGeometry x="100" y="620" width="400" height="180" as="geometry" />
        </mxCell>
        <mxCell id="h2hckbnsCygy0q_4kNPu-18" value="Topologia do Monitoramento" style="text;html=1;align=center;verticalAlign=middle;whiteSpace=wrap;rounded=0;fontStyle=0" vertex="1" parent="1">
          <mxGeometry x="245" y="630" width="110" height="30" as="geometry" />
        </mxCell>
        <mxCell id="h2hckbnsCygy0q_4kNPu-19" value="&lt;div&gt;Notebook&lt;/div&gt;&lt;div&gt;192.168.0.44&lt;/div&gt;" style="fontColor=#000000;verticalAlign=top;verticalLabelPosition=bottom;labelPosition=center;align=center;html=1;outlineConnect=0;fillColor=#CCCCCC;strokeColor=#000000;gradientColor=none;gradientDirection=north;strokeWidth=2;shape=mxgraph.networks.laptop;" vertex="1" parent="1">
          <mxGeometry x="360" y="1152.81" width="100" height="55" as="geometry" />
        </mxCell>
        <mxCell id="h2hckbnsCygy0q_4kNPu-20" style="edgeStyle=orthogonalEdgeStyle;rounded=0;orthogonalLoop=1;jettySize=auto;html=1;entryX=0.15;entryY=0.5;entryDx=0;entryDy=0;entryPerimeter=0;dashed=1;" edge="1" parent="1" source="h2hckbnsCygy0q_4kNPu-21" target="h2hckbnsCygy0q_4kNPu-19">
          <mxGeometry relative="1" as="geometry" />
        </mxCell>
        <mxCell id="h2hckbnsCygy0q_4kNPu-21" value="&lt;div&gt;&lt;span&gt;CentOS7-VM&lt;/span&gt;&lt;/div&gt;&lt;div&gt;192.168.0.83 (Bridged)&lt;/div&gt;&lt;div&gt;10.0.2.15 (NAT)&lt;/div&gt;" style="fontColor=#000000;verticalAlign=top;verticalLabelPosition=bottom;labelPosition=center;align=center;html=1;outlineConnect=0;fillColor=#CCCCCC;strokeColor=#000000;gradientColor=none;gradientDirection=north;strokeWidth=2;shape=mxgraph.networks.virtual_pc;" vertex="1" parent="1">
          <mxGeometry x="170" y="1140" width="108.24" height="80" as="geometry" />
        </mxCell>
        <mxCell id="h2hckbnsCygy0q_4kNPu-22" style="edgeStyle=orthogonalEdgeStyle;rounded=0;orthogonalLoop=1;jettySize=auto;html=1;startArrow=none;startFill=0;endArrow=none;dashed=1;fillColor=#f5f5f5;strokeColor=#666666;opacity=50;fontColor=#000000;" edge="1" parent="1" source="h2hckbnsCygy0q_4kNPu-24" target="h2hckbnsCygy0q_4kNPu-26">
          <mxGeometry relative="1" as="geometry">
            <Array as="points">
              <mxPoint x="570" y="1322.81" />
            </Array>
          </mxGeometry>
        </mxCell>
        <mxCell id="h2hckbnsCygy0q_4kNPu-23" value="Wi-Fi" style="edgeLabel;html=1;align=center;verticalAlign=middle;resizable=0;points=[];fontColor=#000000;" connectable="0" vertex="1" parent="h2hckbnsCygy0q_4kNPu-22">
          <mxGeometry x="0.0506" y="2" relative="1" as="geometry">
            <mxPoint x="2" y="-36" as="offset" />
          </mxGeometry>
        </mxCell>
        <mxCell id="h2hckbnsCygy0q_4kNPu-24" value="&lt;div&gt;Smartphone&lt;/div&gt;&lt;div&gt;192.168.0.4&lt;/div&gt;" style="fontColor=#000000;verticalAlign=top;verticalLabelPosition=bottom;labelPosition=center;align=center;html=1;outlineConnect=0;fillColor=#CCCCCC;strokeColor=#000000;gradientColor=none;gradientDirection=north;strokeWidth=2;shape=mxgraph.networks.mobile;" vertex="1" parent="1">
          <mxGeometry x="556" y="1152.81" width="27.19" height="54.38" as="geometry" />
        </mxCell>
        <mxCell id="h2hckbnsCygy0q_4kNPu-25" style="edgeStyle=orthogonalEdgeStyle;rounded=0;orthogonalLoop=1;jettySize=auto;html=1;startArrow=none;startFill=0;endArrow=none;dashed=1;fontColor=#000000;strokeColor=#000000;strokeWidth=2;" edge="1" parent="1" target="h2hckbnsCygy0q_4kNPu-27">
          <mxGeometry relative="1" as="geometry">
            <mxPoint x="410" y="1372.81" as="sourcePoint" />
          </mxGeometry>
        </mxCell>
        <mxCell id="h2hckbnsCygy0q_4kNPu-26" value="" style="fontColor=#000000;verticalAlign=top;verticalLabelPosition=bottom;labelPosition=center;align=center;html=1;outlineConnect=0;fillColor=#CCCCCC;strokeColor=#000000;gradientColor=none;gradientDirection=north;strokeWidth=2;shape=mxgraph.networks.router;" vertex="1" parent="1">
          <mxGeometry x="360" y="1312.81" width="100" height="30" as="geometry" />
        </mxCell>
        <mxCell id="h2hckbnsCygy0q_4kNPu-27" value="&lt;div&gt;&lt;b&gt;&lt;br&gt;&lt;/b&gt;&lt;/div&gt;&lt;div&gt;&lt;b&gt;Internet&lt;/b&gt;&lt;/div&gt;" style="html=1;outlineConnect=0;fillColor=#CCCCCC;strokeColor=#000000;gradientColor=none;gradientDirection=north;strokeWidth=2;shape=mxgraph.networks.cloud;fontColor=#000000;" vertex="1" parent="1">
          <mxGeometry x="365" y="1412.81" width="90" height="50" as="geometry" />
        </mxCell>
        <mxCell id="h2hckbnsCygy0q_4kNPu-28" style="edgeStyle=orthogonalEdgeStyle;rounded=0;orthogonalLoop=1;jettySize=auto;html=1;dashed=1;endArrow=none;startFill=0;fillColor=#f5f5f5;strokeColor=#666666;opacity=80;fontColor=#000000;" edge="1" parent="1">
          <mxGeometry relative="1" as="geometry">
            <mxPoint x="230" y="1220" as="sourcePoint" />
            <mxPoint x="340" y="1322.5" as="targetPoint" />
            <Array as="points">
              <mxPoint x="230" y="1322.5" />
            </Array>
          </mxGeometry>
        </mxCell>
        <mxCell id="h2hckbnsCygy0q_4kNPu-29" value="Wi-Fi" style="edgeLabel;html=1;align=center;verticalAlign=middle;resizable=0;points=[];fontColor=#000000;" connectable="0" vertex="1" parent="h2hckbnsCygy0q_4kNPu-28">
          <mxGeometry x="-0.3748" relative="1" as="geometry">
            <mxPoint as="offset" />
          </mxGeometry>
        </mxCell>
        <mxCell id="h2hckbnsCygy0q_4kNPu-30" style="edgeStyle=orthogonalEdgeStyle;rounded=0;orthogonalLoop=1;jettySize=auto;html=1;entryX=0.5;entryY=0;entryDx=0;entryDy=0;entryPerimeter=0;startArrow=none;startFill=0;endArrow=none;dashed=1;fillColor=#f5f5f5;strokeColor=#666666;opacity=80;fontColor=#000000;" edge="1" parent="1" source="h2hckbnsCygy0q_4kNPu-19" target="h2hckbnsCygy0q_4kNPu-26">
          <mxGeometry relative="1" as="geometry">
            <Array as="points">
              <mxPoint x="410" y="1192.81" />
              <mxPoint x="410" y="1192.81" />
            </Array>
          </mxGeometry>
        </mxCell>
        <mxCell id="h2hckbnsCygy0q_4kNPu-31" value="&lt;div&gt;Wi-Fi&lt;/div&gt;" style="edgeLabel;html=1;align=center;verticalAlign=middle;resizable=0;points=[];fontColor=#000000;" connectable="0" vertex="1" parent="h2hckbnsCygy0q_4kNPu-30">
          <mxGeometry x="0.1737" y="-3" relative="1" as="geometry">
            <mxPoint x="3" y="14" as="offset" />
          </mxGeometry>
        </mxCell>
        <mxCell id="h2hckbnsCygy0q_4kNPu-32" value="" style="edgeStyle=orthogonalEdgeStyle;rounded=0;orthogonalLoop=1;jettySize=auto;html=1;startArrow=none;startFill=0;endArrow=none;dashed=1;fontColor=#000000;strokeColor=#000000;strokeWidth=2;" edge="1" parent="1" source="h2hckbnsCygy0q_4kNPu-26">
          <mxGeometry relative="1" as="geometry">
            <mxPoint x="410" y="1342.81" as="sourcePoint" />
            <mxPoint x="409.9999999999998" y="1342.81" as="targetPoint" />
          </mxGeometry>
        </mxCell>
        <mxCell id="h2hckbnsCygy0q_4kNPu-33" value="192.168.0.1" style="text;html=1;align=center;verticalAlign=middle;resizable=0;points=[];autosize=1;strokeColor=none;fillColor=none;" vertex="1" parent="1">
          <mxGeometry x="365" y="1292.81" width="90" height="30" as="geometry" />
        </mxCell>
        <mxCell id="h2hckbnsCygy0q_4kNPu-34" value="" style="rounded=0;whiteSpace=wrap;html=1;fillStyle=auto;fillColor=none;" vertex="1" parent="1">
          <mxGeometry x="110" y="1090" width="400" height="280" as="geometry" />
        </mxCell>
        <mxCell id="h2hckbnsCygy0q_4kNPu-35" value="Topologia do Monitoramento" style="text;html=1;align=center;verticalAlign=middle;whiteSpace=wrap;rounded=0;fontStyle=0" vertex="1" parent="1">
          <mxGeometry x="255" y="1100" width="110" height="30" as="geometry" />
        </mxCell>
      </root>
    </mxGraphModel>
  </diagram>
</mxfile>
